<svg version="1.1" xmlns="http://www.w3.org/2000/svg" xmlns:xlink="http://www.w3.org/1999/xlink" width="684" height="608"><defs><clipPath id="cmhdcbhGHrbx"><path fill="none" stroke="none" d=" M 0 0 L 684 0 L 684 608 L 0 608 L 0 0 Z"/></clipPath></defs><g transform="scale(1,1)" clip-path="url(#cmhdcbhGHrbx)"><g><rect fill="rgb(255,255,255)" stroke="none" x="0" y="0" width="685" height="608" fill-opacity="1"/><path fill="none" stroke="rgb(255,215,0)" paint-order="fill stroke markers" d=" M 175.99999999999994 56.00000000000001 C 175.99999999999994 67.04569499661588 167.04569499661582 76 155.99999999999997 76 C 144.9543050033841 76 135.99999999999997 67.04569499661588 135.99999999999997 56.00000000000001 C 135.99999999999997 44.95430500338414 144.9543050033841 36.00000000000001 155.99999999999997 36.00000000000001 C 167.04569499661582 36.00000000000001 175.99999999999994 44.95430500338414 175.99999999999994 56.00000000000001 Z" stroke-opacity="0.6980392156862745" stroke-linecap="round" stroke-linejoin="round" stroke-miterlimit="10" stroke-width="2.5"/><path fill="none" stroke="rgb(255,102,153)" paint-order="fill stroke markers" d=" M 6.000000000000028 6.000000000000007 L 155.99999999999997 56.00000000000001" stroke-opacity="0.6980392156862745" stroke-linecap="round" stroke-linejoin="round" stroke-miterlimit="10" stroke-width="2.5"/><path fill="none" stroke="rgb(0,51,153)" paint-order="fill stroke markers" d=" M 6.000000000000028 106 L 155.99999999999997 56.00000000000001" stroke-opacity="0.6980392156862745" stroke-linecap="round" stroke-linejoin="round" stroke-miterlimit="10" stroke-width="2.5"/><path fill="none" stroke="rgb(153,255,0)" paint-order="fill stroke markers" d=" M 155.99999999999997 56.00000000000001 L 305.9999999999999 6.000000000000007" stroke-opacity="0.6980392156862745" stroke-linecap="round" stroke-linejoin="round" stroke-miterlimit="10" stroke-width="2.5"/><path fill="none" stroke="rgb(204,102,255)" paint-order="fill stroke markers" d=" M 155.99999999999997 56.00000000000001 L 305.9999999999999 106" stroke-opacity="0.6980392156862745" stroke-linecap="round" stroke-linejoin="round" stroke-miterlimit="10" stroke-width="2.5"/><path fill="none" stroke="rgb(255,102,0)" paint-order="fill stroke markers" d=" M 155.99999999999997 56.00000000000001 L 155.99999999999997 306" stroke-opacity="0.6980392156862745" stroke-linecap="round" stroke-linejoin="round" stroke-miterlimit="10" stroke-width="2.5"/><path fill="rgb(77,77,255)" stroke="none" paint-order="stroke fill markers" d=" M 11.000000000000028 6.000000000000007 C 11.000000000000028 8.761423749153973 8.761423749153995 11.000000000000007 6.000000000000028 11.000000000000007 C 3.238576250846062 11.000000000000007 1.0000000000000284 8.761423749153973 1.0000000000000284 6.000000000000007 C 1.0000000000000284 3.2385762508460405 3.238576250846062 1.000000000000007 6.000000000000028 1.000000000000007 C 8.761423749153995 1.000000000000007 11.000000000000028 3.2385762508460405 11.000000000000028 6.000000000000007 Z" fill-opacity="1"/><path fill="none" stroke="rgb(0,0,0)" paint-order="fill stroke markers" d=" M 11.000000000000028 6.000000000000007 C 11.000000000000028 8.761423749153973 8.761423749153995 11.000000000000007 6.000000000000028 11.000000000000007 C 3.238576250846062 11.000000000000007 1.0000000000000284 8.761423749153973 1.0000000000000284 6.000000000000007 C 1.0000000000000284 3.2385762508460405 3.238576250846062 1.000000000000007 6.000000000000028 1.000000000000007 C 8.761423749153995 1.000000000000007 11.000000000000028 3.2385762508460405 11.000000000000028 6.000000000000007 Z" stroke-opacity="1" stroke-linecap="round" stroke-linejoin="round" stroke-miterlimit="10"/><path fill="rgb(0,102,51)" stroke="none" paint-order="stroke fill markers" d=" M 159.99999999999997 56.00000000000001 C 159.99999999999997 58.20913899932318 158.20913899932316 60.00000000000001 155.99999999999997 60.00000000000001 C 153.79086100067678 60.00000000000001 151.99999999999997 58.20913899932318 151.99999999999997 56.00000000000001 C 151.99999999999997 53.790861000676834 153.79086100067678 52.00000000000001 155.99999999999997 52.00000000000001 C 158.20913899932316 52.00000000000001 159.99999999999997 53.790861000676834 159.99999999999997 56.00000000000001 Z" fill-opacity="1"/><path fill="none" stroke="rgb(0,0,0)" paint-order="fill stroke markers" d=" M 159.99999999999997 56.00000000000001 C 159.99999999999997 58.20913899932318 158.20913899932316 60.00000000000001 155.99999999999997 60.00000000000001 C 153.79086100067678 60.00000000000001 151.99999999999997 58.20913899932318 151.99999999999997 56.00000000000001 C 151.99999999999997 53.790861000676834 153.79086100067678 52.00000000000001 155.99999999999997 52.00000000000001 C 158.20913899932316 52.00000000000001 159.99999999999997 53.790861000676834 159.99999999999997 56.00000000000001 Z" stroke-opacity="1" stroke-linecap="round" stroke-linejoin="round" stroke-miterlimit="10"/><path fill="rgb(77,77,255)" stroke="none" paint-order="stroke fill markers" d=" M 11.000000000000028 106 C 11.000000000000028 108.76142374915396 8.761423749153995 111 6.000000000000028 111 C 3.238576250846062 111 1.0000000000000284 108.76142374915396 1.0000000000000284 106 C 1.0000000000000284 103.23857625084604 3.238576250846062 101 6.000000000000028 101 C 8.761423749153995 101 11.000000000000028 103.23857625084604 11.000000000000028 106 Z" fill-opacity="1"/><path fill="none" stroke="rgb(0,0,0)" paint-order="fill stroke markers" d=" M 11.000000000000028 106 C 11.000000000000028 108.76142374915396 8.761423749153995 111 6.000000000000028 111 C 3.238576250846062 111 1.0000000000000284 108.76142374915396 1.0000000000000284 106 C 1.0000000000000284 103.23857625084604 3.238576250846062 101 6.000000000000028 101 C 8.761423749153995 101 11.000000000000028 103.23857625084604 11.000000000000028 106 Z" stroke-opacity="1" stroke-linecap="round" stroke-linejoin="round" stroke-miterlimit="10"/><path fill="rgb(77,77,255)" stroke="none" paint-order="stroke fill markers" d=" M 310.9999999999999 6.000000000000007 C 310.9999999999999 8.761423749153973 308.76142374915383 11.000000000000007 305.9999999999999 11.000000000000007 C 303.23857625084594 11.000000000000007 300.9999999999999 8.761423749153973 300.9999999999999 6.000000000000007 C 300.9999999999999 3.2385762508460405 303.23857625084594 1.000000000000007 305.9999999999999 1.000000000000007 C 308.76142374915383 1.000000000000007 310.9999999999999 3.2385762508460405 310.9999999999999 6.000000000000007 Z" fill-opacity="1"/><path fill="none" stroke="rgb(0,0,0)" paint-order="fill stroke markers" d=" M 310.9999999999999 6.000000000000007 C 310.9999999999999 8.761423749153973 308.76142374915383 11.000000000000007 305.9999999999999 11.000000000000007 C 303.23857625084594 11.000000000000007 300.9999999999999 8.761423749153973 300.9999999999999 6.000000000000007 C 300.9999999999999 3.2385762508460405 303.23857625084594 1.000000000000007 305.9999999999999 1.000000000000007 C 308.76142374915383 1.000000000000007 310.9999999999999 3.2385762508460405 310.9999999999999 6.000000000000007 Z" stroke-opacity="1" stroke-linecap="round" stroke-linejoin="round" stroke-miterlimit="10"/><path fill="rgb(77,77,255)" stroke="none" paint-order="stroke fill markers" d=" M 310.9999999999999 106 C 310.9999999999999 108.76142374915396 308.76142374915383 111 305.9999999999999 111 C 303.23857625084594 111 300.9999999999999 108.76142374915396 300.9999999999999 106 C 300.9999999999999 103.23857625084604 303.23857625084594 101 305.9999999999999 101 C 308.76142374915383 101 310.9999999999999 103.23857625084604 310.9999999999999 106 Z" fill-opacity="1"/><path fill="none" stroke="rgb(0,0,0)" paint-order="fill stroke markers" d=" M 310.9999999999999 106 C 310.9999999999999 108.76142374915396 308.76142374915383 111 305.9999999999999 111 C 303.23857625084594 111 300.9999999999999 108.76142374915396 300.9999999999999 106 C 300.9999999999999 103.23857625084604 303.23857625084594 101 305.9999999999999 101 C 308.76142374915383 101 310.9999999999999 103.23857625084604 310.9999999999999 106 Z" stroke-opacity="1" stroke-linecap="round" stroke-linejoin="round" stroke-miterlimit="10"/><path fill="rgb(77,77,255)" stroke="none" paint-order="stroke fill markers" d=" M 160.99999999999997 306 C 160.99999999999997 308.76142374915395 158.76142374915395 311 155.99999999999997 311 C 153.238576250846 311 150.99999999999997 308.76142374915395 150.99999999999997 306 C 150.99999999999997 303.23857625084605 153.238576250846 301 155.99999999999997 301 C 158.76142374915395 301 160.99999999999997 303.23857625084605 160.99999999999997 306 Z" fill-opacity="1"/><path fill="none" stroke="rgb(0,0,0)" paint-order="fill stroke markers" d=" M 160.99999999999997 306 C 160.99999999999997 308.76142374915395 158.76142374915395 311 155.99999999999997 311 C 153.238576250846 311 150.99999999999997 308.76142374915395 150.99999999999997 306 C 150.99999999999997 303.23857625084605 153.238576250846 301 155.99999999999997 301 C 158.76142374915395 301 160.99999999999997 303.23857625084605 160.99999999999997 306 Z" stroke-opacity="1" stroke-linecap="round" stroke-linejoin="round" stroke-miterlimit="10"/></g></g></svg>